<svg xmlns="http://www.w3.org/2000/svg" viewBox="0 0 100 100" width="100" height="100" role="img" aria-label="Hanging Plant">
  <title>Hanging Plant</title>
  <path d="M 51.22,50 48.78,50 50,53.66 Z M 48.78,17.07 42.68,30.49 42.68,32.93 39.02,39.02 39.02,41.46 35.37,45.12 35.37,47.56 32.93,50 31.71,48.78 25.61,48.78 24.39,50 26.83,53.66 34.15,53.66 35.37,54.88 32.93,56.1 29.27,60.98 24.39,62.2 23.17,69.51 25.61,71.95 25.61,74.39 31.71,68.29 32.93,59.76 36.59,56.1 39.02,57.32 45.12,56.1 46.34,57.32 43.9,59.76 36.59,60.98 39.02,80.49 42.68,85.37 57.32,85.37 62.2,79.27 63.41,69.51 64.63,68.29 64.63,60.98 59.76,60.98 58.54,58.54 60.98,56.1 63.41,56.1 69.51,60.98 68.29,69.51 69.51,71.95 74.39,75.61 75.61,74.39 75.61,70.73 78.05,68.29 78.05,64.63 75.61,62.2 69.51,60.98 68.29,59.76 69.51,58.54 67.07,54.88 68.29,53.66 73.17,53.66 76.83,48.78 74.39,47.56 68.29,47.56 67.07,48.78 64.63,46.34 58.54,34.15 52.44,17.07 Z M 71.95,64.63 74.39,67.07 71.95,70.73 70.73,69.51 70.73,65.85 Z M 26.83,65.85 28.05,63.41 30.49,64.63 28.05,67.07 Z M 37.8,63.41 39.02,62.2 43.9,63.41 50,59.76 58.54,64.63 57.32,65.85 39.02,65.85 Z M 54.88,57.32 56.1,56.1 57.32,57.32 56.1,58.54 Z M 60.98,51.22 62.2,52.44 57.32,56.1 56.1,53.66 58.54,51.22 Z M 39.02,52.44 41.46,51.22 43.9,53.66 40.24,54.88 Z M 51.22,20.73 62.2,46.34 59.76,48.78 57.32,48.78 53.66,54.88 53.66,57.32 48.78,59.76 46.34,53.66 39.02,47.56 39.02,43.9 42.68,37.8 47.56,23.17 Z M 51.22,9.76 50,9.76 50,13.41 Z" fill="#FFFFFF" fill-rule="evenodd"/>
</svg>
