<svg xmlns="http://www.w3.org/2000/svg" viewBox="0 0 100 100" width="100" height="100" role="img" aria-label="Heart">
  <title>Heart</title>
  <path d="M 97.56,60.98 96.34,60.98 92.68,71.95 81.71,85.37 73.17,91.46 64.63,95.12 51.22,96.34 50,97.56 48.78,96.34 36.59,95.12 28.05,91.46 10.98,76.83 12.2,75.61 8.54,73.17 9.76,71.95 7.32,70.73 8.54,69.51 7.32,69.51 12.2,79.27 26.83,92.68 43.9,98.78 57.32,98.78 69.51,95.12 78.05,90.24 90.24,78.05 95.12,69.51 Z M 98.78,53.66 97.56,53.66 97.56,58.54 98.78,57.32 Z M 4.88,53.66 3.66,53.66 3.66,58.54 4.88,57.32 Z M 98.78,43.9 97.56,43.9 97.56,47.56 Z M 4.88,42.68 3.66,42.68 3.66,47.56 4.88,46.34 Z M 30.49,32.93 28.05,37.8 28.05,48.78 31.71,54.88 51.22,71.95 70.73,53.66 74.39,46.34 74.39,39.02 70.73,32.93 64.63,30.49 57.32,31.71 53.66,34.15 51.22,37.8 43.9,31.71 40.24,30.49 Z M 62.2,32.93 67.07,32.93 71.95,39.02 71.95,45.12 68.29,48.78 67.07,47.56 68.29,41.46 64.63,36.59 60.98,35.37 Z M 10.98,25.61 9.76,25.61 7.32,31.71 Z M 31.71,7.32 25.61,9.76 25.61,10.98 Z" fill="#FFFFFF" fill-rule="evenodd"/>
</svg>
