<svg xmlns="http://www.w3.org/2000/svg" viewBox="0 0 100 100" width="100" height="100" role="img" aria-label="Sea Turtle">
  <title>Sea Turtle</title>
  <path d="M 28.05,58.54 24.39,64.63 24.39,71.95 29.27,79.27 32.93,79.27 36.59,73.17 36.59,70.73 32.93,69.51 30.49,75.61 26.83,73.17 28.05,68.29 31.71,65.85 29.27,58.54 Z M 70.73,57.32 68.29,57.32 68.29,59.76 63.41,67.07 64.63,76.83 67.07,79.27 71.95,75.61 74.39,69.51 73.17,60.98 Z M 70.73,64.63 73.17,68.29 68.29,75.61 67.07,74.39 67.07,70.73 69.51,68.29 68.29,65.85 Z M 98.78,43.9 97.56,43.9 97.56,47.56 Z M 54.88,31.71 46.34,31.71 43.9,32.93 45.12,36.59 42.68,39.02 41.46,36.59 39.02,36.59 35.37,41.46 35.37,42.68 37.8,42.68 40.24,45.12 37.8,47.56 32.93,46.34 32.93,59.76 36.59,58.54 41.46,52.44 40.24,48.78 43.9,46.34 47.56,47.56 45.12,50 45.12,54.88 35.37,63.41 41.46,70.73 45.12,71.95 50,71.95 56.1,69.51 62.2,63.41 60.98,60.98 63.41,59.76 65.85,56.1 65.85,51.22 67.07,50 65.85,42.68 62.2,36.59 60.98,36.59 58.54,40.24 57.32,39.02 57.32,35.37 58.54,34.15 Z M 48.78,62.2 52.44,64.63 52.44,68.29 50,70.73 47.56,67.07 47.56,63.41 Z M 57.32,47.56 59.76,47.56 60.98,51.22 63.41,52.44 58.54,58.54 56.1,56.1 56.1,48.78 Z M 62.2,28.05 62.2,31.71 73.17,39.02 78.05,35.37 78.05,32.93 75.61,29.27 71.95,26.83 63.41,26.83 Z M 68.29,31.71 69.51,30.49 73.17,30.49 75.61,32.93 75.61,35.37 74.39,36.59 69.51,35.37 Z M 37.8,28.05 35.37,25.61 28.05,25.61 25.61,26.83 21.95,32.93 21.95,37.8 26.83,35.37 35.37,35.37 39.02,31.71 Z M 25.61,30.49 28.05,26.83 31.71,26.83 32.93,28.05 29.27,31.71 Z" fill="#FFFFFF" fill-rule="evenodd"/>
</svg>
